<svg width="305" height="245" viewBox="0 0 305 245" fill="none" xmlns="http://www.w3.org/2000/svg">
<path d="M0 243.954V184H8.60007V221.322H8.76466L25.183 201.241H35.4701L20.7389 217.948L37.4864 243.954H26.7055L15.3484 223.996L8.60007 231.691V243.954H0Z" fill="white"/>
<path d="M66.3316 244.118V240.333H66.167C65.3715 241.814 64.1782 242.884 62.5871 243.542C60.8863 244.255 58.6643 244.612 55.921 244.612C51.2026 244.502 47.6364 243.24 45.2224 240.826C42.5889 238.412 41.2721 235.326 41.2721 231.568C41.2721 228.002 42.4105 225.011 44.6874 222.597C46.9643 220.183 50.3248 218.949 54.7689 218.894H66.3316V214.368C66.3591 210.582 63.5198 208.744 57.8139 208.854C55.8387 208.854 54.1928 209.073 52.876 209.512C51.5867 210.088 50.6128 210.98 49.9545 212.187L43.3707 207.002C46.5528 202.75 51.2301 200.679 57.4024 200.789C62.5871 200.734 66.7568 201.749 69.9116 203.834C73.0114 206.001 74.5888 209.677 74.6436 214.861V244.118H66.3316ZM66.3316 229.099V225.972H56.3325C51.4495 226.109 49.0355 227.837 49.0903 231.156C49.0903 232.583 49.7213 233.817 50.9832 234.86C52.1902 235.984 54.1791 236.547 56.9497 236.547C60.4611 236.602 62.93 236.176 64.3565 235.271C65.6732 234.366 66.3316 232.309 66.3316 229.099Z" fill="white"/>
<path d="M109.702 243.954V239.51C106.712 242.801 103.036 244.447 98.6745 244.447C96.0409 244.447 93.7778 243.94 91.8849 242.925C89.9921 241.882 88.4422 240.552 87.2351 238.933C86.0281 237.425 85.2188 235.642 84.8074 233.584C84.3959 231.499 84.1901 227.823 84.1901 222.556C84.1901 217.344 84.3959 213.723 84.8074 211.693C85.2188 209.636 86.0281 207.839 87.2351 206.303C88.4422 204.711 89.9921 203.395 91.8849 202.352C93.7778 201.282 96.0409 200.747 98.6745 200.747C100.869 200.747 102.858 201.214 104.641 202.147C106.424 203.079 108.111 204.3 109.702 205.809V184H118.302V243.954H109.702ZM101.308 209.348C97.248 209.348 94.8065 210.733 93.9835 213.504C93.188 216.274 92.7902 219.292 92.7902 222.556C92.7902 225.903 93.188 228.962 93.9835 231.732C94.8065 234.503 97.248 235.888 101.308 235.888C105.286 235.888 107.672 234.448 108.468 231.568C109.291 228.687 109.702 225.684 109.702 222.556C109.702 219.511 109.291 216.549 108.468 213.668C107.672 210.788 105.286 209.348 101.308 209.348Z" fill="white"/>
<path d="M127.89 229.634V201.241H136.49V226.712C136.49 229.62 137.286 231.883 138.877 233.502C140.495 235.093 142.539 235.888 145.008 235.888C147.394 235.888 149.383 235.093 150.974 233.502C152.593 231.883 153.402 229.62 153.402 226.712V201.241H162.002V243.954H153.402V239.427H153.238C150.577 242.774 146.901 244.447 142.21 244.447C138.836 244.447 135.599 243.199 132.499 240.703C129.426 238.179 127.89 234.489 127.89 229.634Z" fill="white"/>
<path d="M173.154 243.954V184H181.754V205.809H181.918C184.579 202.435 188.283 200.747 193.028 200.747C196.348 200.747 199.544 202.009 202.616 204.533C205.716 207.057 207.266 210.733 207.266 215.561V243.954H198.666V218.524C198.666 215.643 197.856 213.394 196.238 211.775C194.647 210.157 192.658 209.348 190.271 209.348C187.802 209.348 185.759 210.157 184.14 211.775C182.549 213.394 181.754 215.643 181.754 218.524V243.954H173.154Z" fill="white"/>
<path d="M218.664 243.954V201.241H227.264V243.954H218.664ZM218.664 192.6V184H227.264V192.6H218.664Z" fill="white"/>
<path d="M238.662 243.954V201.241H247.262V205.809H247.427C250.088 202.435 253.791 200.747 258.537 200.747C261.664 200.747 264.641 201.845 267.466 204.039L261.253 211.446C259.387 210.047 257.495 209.348 255.574 209.348C253.462 209.348 251.542 210.061 249.813 211.487C248.113 212.886 247.262 215.15 247.262 218.277V243.954H238.662Z" fill="white"/>
<path d="M269.318 222.556C269.318 217.975 269.675 214.56 270.388 212.31C271.101 210.061 272.281 208.031 273.927 206.22C275.106 204.931 276.725 203.696 278.782 202.517C280.867 201.337 283.583 200.747 286.93 200.747C290.221 200.747 292.91 201.337 294.995 202.517C297.08 203.696 298.712 204.931 299.891 206.22C301.537 208.031 302.717 210.061 303.43 212.31C304.143 214.56 304.5 217.975 304.5 222.556C304.5 227.22 304.143 230.676 303.43 232.926C302.717 235.175 301.537 237.205 299.891 239.016C298.712 240.333 297.08 241.567 294.995 242.719C292.91 243.871 290.221 244.447 286.93 244.447C283.583 244.447 280.867 243.871 278.782 242.719C276.725 241.567 275.106 240.333 273.927 239.016C272.281 237.205 271.101 235.175 270.388 232.926C269.675 230.676 269.318 227.22 269.318 222.556ZM295.941 222.639C295.941 219.539 295.776 217.358 295.447 216.096C295.146 214.834 294.611 213.627 293.842 212.475C292.334 210.39 290.029 209.348 286.93 209.348C283.775 209.348 281.47 210.39 280.017 212.475C279.194 213.627 278.631 214.834 278.329 216.096C278.055 217.358 277.918 219.511 277.918 222.556C277.918 225.684 278.055 227.892 278.329 229.181C278.631 230.443 279.194 231.636 280.017 232.761C281.47 234.846 283.775 235.888 286.93 235.888C290.029 235.888 292.334 234.846 293.842 232.761C294.611 231.636 295.146 230.443 295.447 229.181C295.776 227.919 295.941 225.738 295.941 222.639Z" fill="white"/>
<path d="M137 153.496C136.75 153.499 136.5 153.5 136.25 153.5C94.1383 153.5 60 119.362 60 77.25C60 35.1383 94.1383 1 136.25 1C136.5 1 136.75 1.00121 137 1.00361V31.0167C136.585 31.0056 136.168 31 135.75 31C110.483 31 90 51.483 90 76.75C90 102.017 110.483 122.5 135.75 122.5C136.168 122.5 136.585 122.494 137 122.483V153.496Z" fill="white"/>
<path d="M0 0H30V153H0V0Z" fill="white"/>
<path d="M304.5 76.25C304.5 118.362 270.362 152.5 228.25 152.5C228.167 152.5 228.083 152.5 228 152.5V121.499C253.152 121.365 273.5 100.934 273.5 75.75C273.5 50.5664 253.152 30.1352 228 30.0007V0.000401145C228.083 0.000133783 228.167 0 228.25 0C270.362 0 304.5 34.1383 304.5 76.25Z" fill="white"/>
<path d="M168 0H198V153H168V0Z" fill="white"/>
</svg>
